# xmcd
#
# Track frame offsets:
#	150
#	18987
#	39632
#	60537
#	82652
#	106178
#	126483
#	150226
#	169511
#	192183
#	203798
#	223758
#	249846
#	264457
#
# Disc length: 3707 seconds
#
# Revision: 0
# Processed by: cddbd v1.5.2PL0 Copyright (c) Steve Scherf et al.
# Submitted via: EZCDAudioConverter 1.3.4.1
#
DISCID=ad0e790e
DTITLE=Robert Plant - Manic Nirvana
DYEAR=1990
DGENRE=
TTITLE0=Hurting Kind (I've Got My Eyes On You)
TTITLE1=Big Love
TTITLE2=S S S and Q
TTITLE3=I Cried
TTITLE4=She Said
TTITLE5=Nirvana
TTITLE6=Tie Dye On The Highway
TTITLE7=Your Ma Said You Cried In Your Sleep Last Night
TTITLE8=Anniversary
TTITLE9=Liars Dance
TTITLE10=Watching You
TTITLE11=Oompa (Watery Bint)
TTITLE12=One Love
TTITLE13=Don't Look Back
EXTD=
EXTT0=
EXTT1=
EXTT2=
EXTT3=
EXTT4=
EXTT5=
EXTT6=
EXTT7=
EXTT8=
EXTT9=
EXTT10=
EXTT11=
EXTT12=
EXTT13=
PLAYORDER=
